<svg width="640" height="640" viewBox="0 0 640 640" xmlns="http://www.w3.org/2000/svg">
<rect x="38.78788" y="38.78788" width="19.39394" height="19.39394"/>
<rect x="58.18182" y="38.78788" width="19.39394" height="19.39394"/>
<rect x="77.57576" y="38.78788" width="19.39394" height="19.39394"/>
<rect x="96.969696" y="38.78788" width="19.39394" height="19.39394"/>
<rect x="116.36364" y="38.78788" width="19.39394" height="19.39394"/>
<rect x="135.75758" y="38.78788" width="19.39394" height="19.39394"/>
<rect x="155.15152" y="38.78788" width="19.39394" height="19.39394"/>
<rect x="232.72728" y="38.78788" width="19.39394" height="19.39394"/>
<rect x="310.30304" y="38.78788" width="19.39394" height="19.39394"/>
<rect x="368.48486" y="38.78788" width="19.39394" height="19.39394"/>
<rect x="387.87878" y="38.78788" width="19.39394" height="19.39394"/>
<rect x="407.27274" y="38.78788" width="19.39394" height="19.39394"/>
<rect x="465.45456" y="38.78788" width="19.39394" height="19.39394"/>
<rect x="484.8485" y="38.78788" width="19.39394" height="19.39394"/>
<rect x="504.24243" y="38.78788" width="19.39394" height="19.39394"/>
<rect x="523.63635" y="38.78788" width="19.39394" height="19.39394"/>
<rect x="543.03033" y="38.78788" width="19.39394" height="19.39394"/>
<rect x="562.42426" y="38.78788" width="19.39394" height="19.39394"/>
<rect x="581.8182" y="38.78788" width="19.39394" height="19.39394"/>
<rect x="38.78788" y="58.18182" width="19.39394" height="19.39394"/>
<rect x="155.15152" y="58.18182" width="19.39394" height="19.39394"/>
<rect x="193.93939" y="58.18182" width="19.39394" height="19.39394"/>
<rect x="213.33334" y="58.18182" width="19.39394" height="19.39394"/>
<rect x="232.72728" y="58.18182" width="19.39394" height="19.39394"/>
<rect x="290.9091" y="58.18182" width="19.39394" height="19.39394"/>
<rect x="329.697" y="58.18182" width="19.39394" height="19.39394"/>
<rect x="368.48486" y="58.18182" width="19.39394" height="19.39394"/>
<rect x="387.87878" y="58.18182" width="19.39394" height="19.39394"/>
<rect x="426.6667" y="58.18182" width="19.39394" height="19.39394"/>
<rect x="465.45456" y="58.18182" width="19.39394" height="19.39394"/>
<rect x="581.8182" y="58.18182" width="19.39394" height="19.39394"/>
<rect x="38.78788" y="77.57576" width="19.39394" height="19.39394"/>
<rect x="77.57576" y="77.57576" width="19.39394" height="19.39394"/>
<rect x="96.969696" y="77.57576" width="19.39394" height="19.39394"/>
<rect x="116.36364" y="77.57576" width="19.39394" height="19.39394"/>
<rect x="155.15152" y="77.57576" width="19.39394" height="19.39394"/>
<rect x="193.93939" y="77.57576" width="19.39394" height="19.39394"/>
<rect x="349.0909" y="77.57576" width="19.39394" height="19.39394"/>
<rect x="368.48486" y="77.57576" width="19.39394" height="19.39394"/>
<rect x="407.27274" y="77.57576" width="19.39394" height="19.39394"/>
<rect x="426.6667" y="77.57576" width="19.39394" height="19.39394"/>
<rect x="465.45456" y="77.57576" width="19.39394" height="19.39394"/>
<rect x="504.24243" y="77.57576" width="19.39394" height="19.39394"/>
<rect x="523.63635" y="77.57576" width="19.39394" height="19.39394"/>
<rect x="543.03033" y="77.57576" width="19.39394" height="19.39394"/>
<rect x="581.8182" y="77.57576" width="19.39394" height="19.39394"/>
<rect x="38.78788" y="96.969696" width="19.39394" height="19.39394"/>
<rect x="77.57576" y="96.969696" width="19.39394" height="19.39394"/>
<rect x="96.969696" y="96.969696" width="19.39394" height="19.39394"/>
<rect x="116.36364" y="96.969696" width="19.39394" height="19.39394"/>
<rect x="155.15152" y="96.969696" width="19.39394" height="19.39394"/>
<rect x="213.33334" y="96.969696" width="19.39394" height="19.39394"/>
<rect x="271.51517" y="96.969696" width="19.39394" height="19.39394"/>
<rect x="349.0909" y="96.969696" width="19.39394" height="19.39394"/>
<rect x="465.45456" y="96.969696" width="19.39394" height="19.39394"/>
<rect x="504.24243" y="96.969696" width="19.39394" height="19.39394"/>
<rect x="523.63635" y="96.969696" width="19.39394" height="19.39394"/>
<rect x="543.03033" y="96.969696" width="19.39394" height="19.39394"/>
<rect x="581.8182" y="96.969696" width="19.39394" height="19.39394"/>
<rect x="38.78788" y="116.36364" width="19.39394" height="19.39394"/>
<rect x="77.57576" y="116.36364" width="19.39394" height="19.39394"/>
<rect x="96.969696" y="116.36364" width="19.39394" height="19.39394"/>
<rect x="116.36364" y="116.36364" width="19.39394" height="19.39394"/>
<rect x="155.15152" y="116.36364" width="19.39394" height="19.39394"/>
<rect x="193.93939" y="116.36364" width="19.39394" height="19.39394"/>
<rect x="213.33334" y="116.36364" width="19.39394" height="19.39394"/>
<rect x="232.72728" y="116.36364" width="19.39394" height="19.39394"/>
<rect x="271.51517" y="116.36364" width="19.39394" height="19.39394"/>
<rect x="290.9091" y="116.36364" width="19.39394" height="19.39394"/>
<rect x="329.697" y="116.36364" width="19.39394" height="19.39394"/>
<rect x="368.48486" y="116.36364" width="19.39394" height="19.39394"/>
<rect x="387.87878" y="116.36364" width="19.39394" height="19.39394"/>
<rect x="465.45456" y="116.36364" width="19.39394" height="19.39394"/>
<rect x="504.24243" y="116.36364" width="19.39394" height="19.39394"/>
<rect x="523.63635" y="116.36364" width="19.39394" height="19.39394"/>
<rect x="543.03033" y="116.36364" width="19.39394" height="19.39394"/>
<rect x="581.8182" y="116.36364" width="19.39394" height="19.39394"/>
<rect x="38.78788" y="135.75758" width="19.39394" height="19.39394"/>
<rect x="155.15152" y="135.75758" width="19.39394" height="19.39394"/>
<rect x="193.93939" y="135.75758" width="19.39394" height="19.39394"/>
<rect x="232.72728" y="135.75758" width="19.39394" height="19.39394"/>
<rect x="271.51517" y="135.75758" width="19.39394" height="19.39394"/>
<rect x="310.30304" y="135.75758" width="19.39394" height="19.39394"/>
<rect x="329.697" y="135.75758" width="19.39394" height="19.39394"/>
<rect x="349.0909" y="135.75758" width="19.39394" height="19.39394"/>
<rect x="368.48486" y="135.75758" width="19.39394" height="19.39394"/>
<rect x="387.87878" y="135.75758" width="19.39394" height="19.39394"/>
<rect x="407.27274" y="135.75758" width="19.39394" height="19.39394"/>
<rect x="465.45456" y="135.75758" width="19.39394" height="19.39394"/>
<rect x="581.8182" y="135.75758" width="19.39394" height="19.39394"/>
<rect x="38.78788" y="155.15152" width="19.39394" height="19.39394"/>
<rect x="58.18182" y="155.15152" width="19.39394" height="19.39394"/>
<rect x="77.57576" y="155.15152" width="19.39394" height="19.39394"/>
<rect x="96.969696" y="155.15152" width="19.39394" height="19.39394"/>
<rect x="116.36364" y="155.15152" width="19.39394" height="19.39394"/>
<rect x="135.75758" y="155.15152" width="19.39394" height="19.39394"/>
<rect x="155.15152" y="155.15152" width="19.39394" height="19.39394"/>
<rect x="193.93939" y="155.15152" width="19.39394" height="19.39394"/>
<rect x="232.72728" y="155.15152" width="19.39394" height="19.39394"/>
<rect x="271.51517" y="155.15152" width="19.39394" height="19.39394"/>
<rect x="310.30304" y="155.15152" width="19.39394" height="19.39394"/>
<rect x="349.0909" y="155.15152" width="19.39394" height="19.39394"/>
<rect x="387.87878" y="155.15152" width="19.39394" height="19.39394"/>
<rect x="426.6667" y="155.15152" width="19.39394" height="19.39394"/>
<rect x="465.45456" y="155.15152" width="19.39394" height="19.39394"/>
<rect x="484.8485" y="155.15152" width="19.39394" height="19.39394"/>
<rect x="504.24243" y="155.15152" width="19.39394" height="19.39394"/>
<rect x="523.63635" y="155.15152" width="19.39394" height="19.39394"/>
<rect x="543.03033" y="155.15152" width="19.39394" height="19.39394"/>
<rect x="562.42426" y="155.15152" width="19.39394" height="19.39394"/>
<rect x="581.8182" y="155.15152" width="19.39394" height="19.39394"/>
<rect x="193.93939" y="174.54546" width="19.39394" height="19.39394"/>
<rect x="232.72728" y="174.54546" width="19.39394" height="19.39394"/>
<rect x="252.12122" y="174.54546" width="19.39394" height="19.39394"/>
<rect x="329.697" y="174.54546" width="19.39394" height="19.39394"/>
<rect x="368.48486" y="174.54546" width="19.39394" height="19.39394"/>
<rect x="387.87878" y="174.54546" width="19.39394" height="19.39394"/>
<rect x="407.27274" y="174.54546" width="19.39394" height="19.39394"/>
<rect x="38.78788" y="193.93939" width="19.39394" height="19.39394"/>
<rect x="58.18182" y="193.93939" width="19.39394" height="19.39394"/>
<rect x="96.969696" y="193.93939" width="19.39394" height="19.39394"/>
<rect x="155.15152" y="193.93939" width="19.39394" height="19.39394"/>
<rect x="174.54546" y="193.93939" width="19.39394" height="19.39394"/>
<rect x="252.12122" y="193.93939" width="19.39394" height="19.39394"/>
<rect x="271.51517" y="193.93939" width="19.39394" height="19.39394"/>
<rect x="290.9091" y="193.93939" width="19.39394" height="19.39394"/>
<rect x="310.30304" y="193.93939" width="19.39394" height="19.39394"/>
<rect x="329.697" y="193.93939" width="19.39394" height="19.39394"/>
<rect x="349.0909" y="193.93939" width="19.39394" height="19.39394"/>
<rect x="465.45456" y="193.93939" width="19.39394" height="19.39394"/>
<rect x="484.8485" y="193.93939" width="19.39394" height="19.39394"/>
<rect x="504.24243" y="193.93939" width="19.39394" height="19.39394"/>
<rect x="543.03033" y="193.93939" width="19.39394" height="19.39394"/>
<rect x="562.42426" y="193.93939" width="19.39394" height="19.39394"/>
<rect x="58.18182" y="213.33334" width="19.39394" height="19.39394"/>
<rect x="77.57576" y="213.33334" width="19.39394" height="19.39394"/>
<rect x="96.969696" y="213.33334" width="19.39394" height="19.39394"/>
<rect x="116.36364" y="213.33334" width="19.39394" height="19.39394"/>
<rect x="135.75758" y="213.33334" width="19.39394" height="19.39394"/>
<rect x="213.33334" y="213.33334" width="19.39394" height="19.39394"/>
<rect x="252.12122" y="213.33334" width="19.39394" height="19.39394"/>
<rect x="271.51517" y="213.33334" width="19.39394" height="19.39394"/>
<rect x="290.9091" y="213.33334" width="19.39394" height="19.39394"/>
<rect x="329.697" y="213.33334" width="19.39394" height="19.39394"/>
<rect x="349.0909" y="213.33334" width="19.39394" height="19.39394"/>
<rect x="368.48486" y="213.33334" width="19.39394" height="19.39394"/>
<rect x="387.87878" y="213.33334" width="19.39394" height="19.39394"/>
<rect x="426.6667" y="213.33334" width="19.39394" height="19.39394"/>
<rect x="465.45456" y="213.33334" width="19.39394" height="19.39394"/>
<rect x="523.63635" y="213.33334" width="19.39394" height="19.39394"/>
<rect x="581.8182" y="213.33334" width="19.39394" height="19.39394"/>
<rect x="58.18182" y="232.72728" width="19.39394" height="19.39394"/>
<rect x="77.57576" y="232.72728" width="19.39394" height="19.39394"/>
<rect x="116.36364" y="232.72728" width="19.39394" height="19.39394"/>
<rect x="155.15152" y="232.72728" width="19.39394" height="19.39394"/>
<rect x="174.54546" y="232.72728" width="19.39394" height="19.39394"/>
<rect x="193.93939" y="232.72728" width="19.39394" height="19.39394"/>
<rect x="252.12122" y="232.72728" width="19.39394" height="19.39394"/>
<rect x="271.51517" y="232.72728" width="19.39394" height="19.39394"/>
<rect x="349.0909" y="232.72728" width="19.39394" height="19.39394"/>
<rect x="368.48486" y="232.72728" width="19.39394" height="19.39394"/>
<rect x="407.27274" y="232.72728" width="19.39394" height="19.39394"/>
<rect x="426.6667" y="232.72728" width="19.39394" height="19.39394"/>
<rect x="465.45456" y="232.72728" width="19.39394" height="19.39394"/>
<rect x="523.63635" y="232.72728" width="19.39394" height="19.39394"/>
<rect x="543.03033" y="232.72728" width="19.39394" height="19.39394"/>
<rect x="562.42426" y="232.72728" width="19.39394" height="19.39394"/>
<rect x="58.18182" y="252.12122" width="19.39394" height="19.39394"/>
<rect x="77.57576" y="252.12122" width="19.39394" height="19.39394"/>
<rect x="96.969696" y="252.12122" width="19.39394" height="19.39394"/>
<rect x="116.36364" y="252.12122" width="19.39394" height="19.39394"/>
<rect x="174.54546" y="252.12122" width="19.39394" height="19.39394"/>
<rect x="193.93939" y="252.12122" width="19.39394" height="19.39394"/>
<rect x="213.33334" y="252.12122" width="19.39394" height="19.39394"/>
<rect x="232.72728" y="252.12122" width="19.39394" height="19.39394"/>
<rect x="252.12122" y="252.12122" width="19.39394" height="19.39394"/>
<rect x="271.51517" y="252.12122" width="19.39394" height="19.39394"/>
<rect x="290.9091" y="252.12122" width="19.39394" height="19.39394"/>
<rect x="329.697" y="252.12122" width="19.39394" height="19.39394"/>
<rect x="349.0909" y="252.12122" width="19.39394" height="19.39394"/>
<rect x="387.87878" y="252.12122" width="19.39394" height="19.39394"/>
<rect x="484.8485" y="252.12122" width="19.39394" height="19.39394"/>
<rect x="504.24243" y="252.12122" width="19.39394" height="19.39394"/>
<rect x="543.03033" y="252.12122" width="19.39394" height="19.39394"/>
<rect x="562.42426" y="252.12122" width="19.39394" height="19.39394"/>
<rect x="96.969696" y="271.51517" width="19.39394" height="19.39394"/>
<rect x="155.15152" y="271.51517" width="19.39394" height="19.39394"/>
<rect x="174.54546" y="271.51517" width="19.39394" height="19.39394"/>
<rect x="232.72728" y="271.51517" width="19.39394" height="19.39394"/>
<rect x="252.12122" y="271.51517" width="19.39394" height="19.39394"/>
<rect x="329.697" y="271.51517" width="19.39394" height="19.39394"/>
<rect x="349.0909" y="271.51517" width="19.39394" height="19.39394"/>
<rect x="368.48486" y="271.51517" width="19.39394" height="19.39394"/>
<rect x="407.27274" y="271.51517" width="19.39394" height="19.39394"/>
<rect x="426.6667" y="271.51517" width="19.39394" height="19.39394"/>
<rect x="446.0606" y="271.51517" width="19.39394" height="19.39394"/>
<rect x="465.45456" y="271.51517" width="19.39394" height="19.39394"/>
<rect x="523.63635" y="271.51517" width="19.39394" height="19.39394"/>
<rect x="562.42426" y="271.51517" width="19.39394" height="19.39394"/>
<rect x="581.8182" y="271.51517" width="19.39394" height="19.39394"/>
<rect x="58.18182" y="290.9091" width="19.39394" height="19.39394"/>
<rect x="77.57576" y="290.9091" width="19.39394" height="19.39394"/>
<rect x="96.969696" y="290.9091" width="19.39394" height="19.39394"/>
<rect x="116.36364" y="290.9091" width="19.39394" height="19.39394"/>
<rect x="193.93939" y="290.9091" width="19.39394" height="19.39394"/>
<rect x="252.12122" y="290.9091" width="19.39394" height="19.39394"/>
<rect x="310.30304" y="290.9091" width="19.39394" height="19.39394"/>
<rect x="349.0909" y="290.9091" width="19.39394" height="19.39394"/>
<rect x="368.48486" y="290.9091" width="19.39394" height="19.39394"/>
<rect x="407.27274" y="290.9091" width="19.39394" height="19.39394"/>
<rect x="446.0606" y="290.9091" width="19.39394" height="19.39394"/>
<rect x="484.8485" y="290.9091" width="19.39394" height="19.39394"/>
<rect x="96.969696" y="310.30304" width="19.39394" height="19.39394"/>
<rect x="155.15152" y="310.30304" width="19.39394" height="19.39394"/>
<rect x="193.93939" y="310.30304" width="19.39394" height="19.39394"/>
<rect x="213.33334" y="310.30304" width="19.39394" height="19.39394"/>
<rect x="232.72728" y="310.30304" width="19.39394" height="19.39394"/>
<rect x="252.12122" y="310.30304" width="19.39394" height="19.39394"/>
<rect x="310.30304" y="310.30304" width="19.39394" height="19.39394"/>
<rect x="349.0909" y="310.30304" width="19.39394" height="19.39394"/>
<rect x="368.48486" y="310.30304" width="19.39394" height="19.39394"/>
<rect x="387.87878" y="310.30304" width="19.39394" height="19.39394"/>
<rect x="426.6667" y="310.30304" width="19.39394" height="19.39394"/>
<rect x="446.0606" y="310.30304" width="19.39394" height="19.39394"/>
<rect x="523.63635" y="310.30304" width="19.39394" height="19.39394"/>
<rect x="543.03033" y="310.30304" width="19.39394" height="19.39394"/>
<rect x="562.42426" y="310.30304" width="19.39394" height="19.39394"/>
<rect x="581.8182" y="310.30304" width="19.39394" height="19.39394"/>
<rect x="77.57576" y="329.697" width="19.39394" height="19.39394"/>
<rect x="96.969696" y="329.697" width="19.39394" height="19.39394"/>
<rect x="116.36364" y="329.697" width="19.39394" height="19.39394"/>
<rect x="193.93939" y="329.697" width="19.39394" height="19.39394"/>
<rect x="213.33334" y="329.697" width="19.39394" height="19.39394"/>
<rect x="232.72728" y="329.697" width="19.39394" height="19.39394"/>
<rect x="252.12122" y="329.697" width="19.39394" height="19.39394"/>
<rect x="290.9091" y="329.697" width="19.39394" height="19.39394"/>
<rect x="310.30304" y="329.697" width="19.39394" height="19.39394"/>
<rect x="329.697" y="329.697" width="19.39394" height="19.39394"/>
<rect x="349.0909" y="329.697" width="19.39394" height="19.39394"/>
<rect x="368.48486" y="329.697" width="19.39394" height="19.39394"/>
<rect x="387.87878" y="329.697" width="19.39394" height="19.39394"/>
<rect x="407.27274" y="329.697" width="19.39394" height="19.39394"/>
<rect x="426.6667" y="329.697" width="19.39394" height="19.39394"/>
<rect x="465.45456" y="329.697" width="19.39394" height="19.39394"/>
<rect x="523.63635" y="329.697" width="19.39394" height="19.39394"/>
<rect x="562.42426" y="329.697" width="19.39394" height="19.39394"/>
<rect x="38.78788" y="349.0909" width="19.39394" height="19.39394"/>
<rect x="135.75758" y="349.0909" width="19.39394" height="19.39394"/>
<rect x="155.15152" y="349.0909" width="19.39394" height="19.39394"/>
<rect x="174.54546" y="349.0909" width="19.39394" height="19.39394"/>
<rect x="213.33334" y="349.0909" width="19.39394" height="19.39394"/>
<rect x="232.72728" y="349.0909" width="19.39394" height="19.39394"/>
<rect x="271.51517" y="349.0909" width="19.39394" height="19.39394"/>
<rect x="329.697" y="349.0909" width="19.39394" height="19.39394"/>
<rect x="368.48486" y="349.0909" width="19.39394" height="19.39394"/>
<rect x="407.27274" y="349.0909" width="19.39394" height="19.39394"/>
<rect x="426.6667" y="349.0909" width="19.39394" height="19.39394"/>
<rect x="446.0606" y="349.0909" width="19.39394" height="19.39394"/>
<rect x="484.8485" y="349.0909" width="19.39394" height="19.39394"/>
<rect x="562.42426" y="349.0909" width="19.39394" height="19.39394"/>
<rect x="58.18182" y="368.48486" width="19.39394" height="19.39394"/>
<rect x="77.57576" y="368.48486" width="19.39394" height="19.39394"/>
<rect x="116.36364" y="368.48486" width="19.39394" height="19.39394"/>
<rect x="135.75758" y="368.48486" width="19.39394" height="19.39394"/>
<rect x="174.54546" y="368.48486" width="19.39394" height="19.39394"/>
<rect x="213.33334" y="368.48486" width="19.39394" height="19.39394"/>
<rect x="232.72728" y="368.48486" width="19.39394" height="19.39394"/>
<rect x="271.51517" y="368.48486" width="19.39394" height="19.39394"/>
<rect x="310.30304" y="368.48486" width="19.39394" height="19.39394"/>
<rect x="349.0909" y="368.48486" width="19.39394" height="19.39394"/>
<rect x="387.87878" y="368.48486" width="19.39394" height="19.39394"/>
<rect x="465.45456" y="368.48486" width="19.39394" height="19.39394"/>
<rect x="484.8485" y="368.48486" width="19.39394" height="19.39394"/>
<rect x="523.63635" y="368.48486" width="19.39394" height="19.39394"/>
<rect x="581.8182" y="368.48486" width="19.39394" height="19.39394"/>
<rect x="38.78788" y="387.87878" width="19.39394" height="19.39394"/>
<rect x="96.969696" y="387.87878" width="19.39394" height="19.39394"/>
<rect x="155.15152" y="387.87878" width="19.39394" height="19.39394"/>
<rect x="213.33334" y="387.87878" width="19.39394" height="19.39394"/>
<rect x="252.12122" y="387.87878" width="19.39394" height="19.39394"/>
<rect x="271.51517" y="387.87878" width="19.39394" height="19.39394"/>
<rect x="290.9091" y="387.87878" width="19.39394" height="19.39394"/>
<rect x="426.6667" y="387.87878" width="19.39394" height="19.39394"/>
<rect x="446.0606" y="387.87878" width="19.39394" height="19.39394"/>
<rect x="465.45456" y="387.87878" width="19.39394" height="19.39394"/>
<rect x="484.8485" y="387.87878" width="19.39394" height="19.39394"/>
<rect x="562.42426" y="387.87878" width="19.39394" height="19.39394"/>
<rect x="581.8182" y="387.87878" width="19.39394" height="19.39394"/>
<rect x="135.75758" y="407.27274" width="19.39394" height="19.39394"/>
<rect x="174.54546" y="407.27274" width="19.39394" height="19.39394"/>
<rect x="271.51517" y="407.27274" width="19.39394" height="19.39394"/>
<rect x="310.30304" y="407.27274" width="19.39394" height="19.39394"/>
<rect x="329.697" y="407.27274" width="19.39394" height="19.39394"/>
<rect x="368.48486" y="407.27274" width="19.39394" height="19.39394"/>
<rect x="407.27274" y="407.27274" width="19.39394" height="19.39394"/>
<rect x="465.45456" y="407.27274" width="19.39394" height="19.39394"/>
<rect x="562.42426" y="407.27274" width="19.39394" height="19.39394"/>
<rect x="581.8182" y="407.27274" width="19.39394" height="19.39394"/>
<rect x="38.78788" y="426.6667" width="19.39394" height="19.39394"/>
<rect x="135.75758" y="426.6667" width="19.39394" height="19.39394"/>
<rect x="155.15152" y="426.6667" width="19.39394" height="19.39394"/>
<rect x="213.33334" y="426.6667" width="19.39394" height="19.39394"/>
<rect x="232.72728" y="426.6667" width="19.39394" height="19.39394"/>
<rect x="290.9091" y="426.6667" width="19.39394" height="19.39394"/>
<rect x="310.30304" y="426.6667" width="19.39394" height="19.39394"/>
<rect x="329.697" y="426.6667" width="19.39394" height="19.39394"/>
<rect x="426.6667" y="426.6667" width="19.39394" height="19.39394"/>
<rect x="446.0606" y="426.6667" width="19.39394" height="19.39394"/>
<rect x="465.45456" y="426.6667" width="19.39394" height="19.39394"/>
<rect x="484.8485" y="426.6667" width="19.39394" height="19.39394"/>
<rect x="504.24243" y="426.6667" width="19.39394" height="19.39394"/>
<rect x="543.03033" y="426.6667" width="19.39394" height="19.39394"/>
<rect x="193.93939" y="446.0606" width="19.39394" height="19.39394"/>
<rect x="213.33334" y="446.0606" width="19.39394" height="19.39394"/>
<rect x="232.72728" y="446.0606" width="19.39394" height="19.39394"/>
<rect x="252.12122" y="446.0606" width="19.39394" height="19.39394"/>
<rect x="290.9091" y="446.0606" width="19.39394" height="19.39394"/>
<rect x="310.30304" y="446.0606" width="19.39394" height="19.39394"/>
<rect x="368.48486" y="446.0606" width="19.39394" height="19.39394"/>
<rect x="407.27274" y="446.0606" width="19.39394" height="19.39394"/>
<rect x="426.6667" y="446.0606" width="19.39394" height="19.39394"/>
<rect x="504.24243" y="446.0606" width="19.39394" height="19.39394"/>
<rect x="543.03033" y="446.0606" width="19.39394" height="19.39394"/>
<rect x="562.42426" y="446.0606" width="19.39394" height="19.39394"/>
<rect x="581.8182" y="446.0606" width="19.39394" height="19.39394"/>
<rect x="38.78788" y="465.45456" width="19.39394" height="19.39394"/>
<rect x="58.18182" y="465.45456" width="19.39394" height="19.39394"/>
<rect x="77.57576" y="465.45456" width="19.39394" height="19.39394"/>
<rect x="96.969696" y="465.45456" width="19.39394" height="19.39394"/>
<rect x="116.36364" y="465.45456" width="19.39394" height="19.39394"/>
<rect x="135.75758" y="465.45456" width="19.39394" height="19.39394"/>
<rect x="155.15152" y="465.45456" width="19.39394" height="19.39394"/>
<rect x="193.93939" y="465.45456" width="19.39394" height="19.39394"/>
<rect x="213.33334" y="465.45456" width="19.39394" height="19.39394"/>
<rect x="232.72728" y="465.45456" width="19.39394" height="19.39394"/>
<rect x="290.9091" y="465.45456" width="19.39394" height="19.39394"/>
<rect x="368.48486" y="465.45456" width="19.39394" height="19.39394"/>
<rect x="387.87878" y="465.45456" width="19.39394" height="19.39394"/>
<rect x="426.6667" y="465.45456" width="19.39394" height="19.39394"/>
<rect x="465.45456" y="465.45456" width="19.39394" height="19.39394"/>
<rect x="504.24243" y="465.45456" width="19.39394" height="19.39394"/>
<rect x="562.42426" y="465.45456" width="19.39394" height="19.39394"/>
<rect x="38.78788" y="484.8485" width="19.39394" height="19.39394"/>
<rect x="155.15152" y="484.8485" width="19.39394" height="19.39394"/>
<rect x="290.9091" y="484.8485" width="19.39394" height="19.39394"/>
<rect x="349.0909" y="484.8485" width="19.39394" height="19.39394"/>
<rect x="387.87878" y="484.8485" width="19.39394" height="19.39394"/>
<rect x="426.6667" y="484.8485" width="19.39394" height="19.39394"/>
<rect x="504.24243" y="484.8485" width="19.39394" height="19.39394"/>
<rect x="523.63635" y="484.8485" width="19.39394" height="19.39394"/>
<rect x="543.03033" y="484.8485" width="19.39394" height="19.39394"/>
<rect x="581.8182" y="484.8485" width="19.39394" height="19.39394"/>
<rect x="38.78788" y="504.24243" width="19.39394" height="19.39394"/>
<rect x="77.57576" y="504.24243" width="19.39394" height="19.39394"/>
<rect x="96.969696" y="504.24243" width="19.39394" height="19.39394"/>
<rect x="116.36364" y="504.24243" width="19.39394" height="19.39394"/>
<rect x="155.15152" y="504.24243" width="19.39394" height="19.39394"/>
<rect x="232.72728" y="504.24243" width="19.39394" height="19.39394"/>
<rect x="271.51517" y="504.24243" width="19.39394" height="19.39394"/>
<rect x="290.9091" y="504.24243" width="19.39394" height="19.39394"/>
<rect x="368.48486" y="504.24243" width="19.39394" height="19.39394"/>
<rect x="426.6667" y="504.24243" width="19.39394" height="19.39394"/>
<rect x="446.0606" y="504.24243" width="19.39394" height="19.39394"/>
<rect x="465.45456" y="504.24243" width="19.39394" height="19.39394"/>
<rect x="484.8485" y="504.24243" width="19.39394" height="19.39394"/>
<rect x="504.24243" y="504.24243" width="19.39394" height="19.39394"/>
<rect x="38.78788" y="523.63635" width="19.39394" height="19.39394"/>
<rect x="77.57576" y="523.63635" width="19.39394" height="19.39394"/>
<rect x="96.969696" y="523.63635" width="19.39394" height="19.39394"/>
<rect x="116.36364" y="523.63635" width="19.39394" height="19.39394"/>
<rect x="155.15152" y="523.63635" width="19.39394" height="19.39394"/>
<rect x="193.93939" y="523.63635" width="19.39394" height="19.39394"/>
<rect x="232.72728" y="523.63635" width="19.39394" height="19.39394"/>
<rect x="252.12122" y="523.63635" width="19.39394" height="19.39394"/>
<rect x="271.51517" y="523.63635" width="19.39394" height="19.39394"/>
<rect x="407.27274" y="523.63635" width="19.39394" height="19.39394"/>
<rect x="465.45456" y="523.63635" width="19.39394" height="19.39394"/>
<rect x="504.24243" y="523.63635" width="19.39394" height="19.39394"/>
<rect x="523.63635" y="523.63635" width="19.39394" height="19.39394"/>
<rect x="543.03033" y="523.63635" width="19.39394" height="19.39394"/>
<rect x="562.42426" y="523.63635" width="19.39394" height="19.39394"/>
<rect x="38.78788" y="543.03033" width="19.39394" height="19.39394"/>
<rect x="77.57576" y="543.03033" width="19.39394" height="19.39394"/>
<rect x="96.969696" y="543.03033" width="19.39394" height="19.39394"/>
<rect x="116.36364" y="543.03033" width="19.39394" height="19.39394"/>
<rect x="155.15152" y="543.03033" width="19.39394" height="19.39394"/>
<rect x="271.51517" y="543.03033" width="19.39394" height="19.39394"/>
<rect x="290.9091" y="543.03033" width="19.39394" height="19.39394"/>
<rect x="310.30304" y="543.03033" width="19.39394" height="19.39394"/>
<rect x="368.48486" y="543.03033" width="19.39394" height="19.39394"/>
<rect x="387.87878" y="543.03033" width="19.39394" height="19.39394"/>
<rect x="407.27274" y="543.03033" width="19.39394" height="19.39394"/>
<rect x="446.0606" y="543.03033" width="19.39394" height="19.39394"/>
<rect x="504.24243" y="543.03033" width="19.39394" height="19.39394"/>
<rect x="523.63635" y="543.03033" width="19.39394" height="19.39394"/>
<rect x="543.03033" y="543.03033" width="19.39394" height="19.39394"/>
<rect x="581.8182" y="543.03033" width="19.39394" height="19.39394"/>
<rect x="38.78788" y="562.42426" width="19.39394" height="19.39394"/>
<rect x="155.15152" y="562.42426" width="19.39394" height="19.39394"/>
<rect x="193.93939" y="562.42426" width="19.39394" height="19.39394"/>
<rect x="271.51517" y="562.42426" width="19.39394" height="19.39394"/>
<rect x="290.9091" y="562.42426" width="19.39394" height="19.39394"/>
<rect x="310.30304" y="562.42426" width="19.39394" height="19.39394"/>
<rect x="349.0909" y="562.42426" width="19.39394" height="19.39394"/>
<rect x="368.48486" y="562.42426" width="19.39394" height="19.39394"/>
<rect x="426.6667" y="562.42426" width="19.39394" height="19.39394"/>
<rect x="504.24243" y="562.42426" width="19.39394" height="19.39394"/>
<rect x="562.42426" y="562.42426" width="19.39394" height="19.39394"/>
<rect x="38.78788" y="581.8182" width="19.39394" height="19.39394"/>
<rect x="58.18182" y="581.8182" width="19.39394" height="19.39394"/>
<rect x="77.57576" y="581.8182" width="19.39394" height="19.39394"/>
<rect x="96.969696" y="581.8182" width="19.39394" height="19.39394"/>
<rect x="116.36364" y="581.8182" width="19.39394" height="19.39394"/>
<rect x="135.75758" y="581.8182" width="19.39394" height="19.39394"/>
<rect x="155.15152" y="581.8182" width="19.39394" height="19.39394"/>
<rect x="193.93939" y="581.8182" width="19.39394" height="19.39394"/>
<rect x="213.33334" y="581.8182" width="19.39394" height="19.39394"/>
<rect x="232.72728" y="581.8182" width="19.39394" height="19.39394"/>
<rect x="252.12122" y="581.8182" width="19.39394" height="19.39394"/>
<rect x="271.51517" y="581.8182" width="19.39394" height="19.39394"/>
<rect x="290.9091" y="581.8182" width="19.39394" height="19.39394"/>
<rect x="310.30304" y="581.8182" width="19.39394" height="19.39394"/>
<rect x="329.697" y="581.8182" width="19.39394" height="19.39394"/>
<rect x="349.0909" y="581.8182" width="19.39394" height="19.39394"/>
<rect x="368.48486" y="581.8182" width="19.39394" height="19.39394"/>
<rect x="387.87878" y="581.8182" width="19.39394" height="19.39394"/>
<rect x="426.6667" y="581.8182" width="19.39394" height="19.39394"/>
<rect x="484.8485" y="581.8182" width="19.39394" height="19.39394"/>
<rect x="504.24243" y="581.8182" width="19.39394" height="19.39394"/>
<rect x="562.42426" y="581.8182" width="19.39394" height="19.39394"/>
</svg>
